<svg width="1440" height="733" viewBox="0 0 1440 733" fill="none" xmlns="http://www.w3.org/2000/svg">
<path d="M1509.77 306.874C1059.54 332.459 542.14 276.192 339.718 244.861C249.419 233.68 114.804 240.181 298.733 355.626C528.645 499.932 1176.89 670.37 1509.77 692.211C1842.64 714.052 2072.55 274.892 1509.77 306.874Z" fill="url(#paint0_linear_44_153)"/>
<g filter="url(#filter0_b_44_153)">
<path d="M1476.77 271.277C1026.54 304.787 509.14 231.093 306.718 190.057C216.419 175.413 81.8044 183.927 265.733 335.129C495.645 524.133 1143.89 747.361 1476.77 775.967C1809.64 804.573 2039.55 229.39 1476.77 271.277Z" fill="url(#paint1_linear_44_153)" fill-opacity="0.2"/>
</g>
<path d="M359.85 191.772C359.927 191.801 360.001 191.821 360.078 191.85L360.114 191.864C360.104 191.933 360.091 192.009 360.088 192.08L360.039 192.062C359.374 196.741 358.876 201.428 358.546 206.097C355.784 244.844 364.304 283.071 382.16 316.458C382.186 316.516 382.215 316.568 382.244 316.619C346.68 329.786 314.912 352.799 291.265 383.699C288.419 387.414 285.687 391.254 283.084 395.2L282.985 395.163C276.398 405.102 270.621 415.744 265.75 427.044C240.126 408.613 221.41 382.767 211.526 353.733C164.045 317.046 128.773 267.869 108.725 212.889C160.169 184.993 219.178 171.532 279.052 175.506C305.687 160.323 336.808 153.356 368.198 156.524C364.312 168.189 361.551 179.982 359.85 191.772Z" fill="white"/>
<defs>
<filter id="filter0_b_44_153" x="104" y="115" width="1784" height="732" filterUnits="userSpaceOnUse" color-interpolation-filters="sRGB">
<feFlood flood-opacity="0" result="BackgroundImageFix"/>
<feGaussianBlur in="BackgroundImageFix" stdDeviation="35"/>
<feComposite in2="SourceAlpha" operator="in" result="effect1_backgroundBlur_44_153"/>
<feBlend mode="normal" in="SourceGraphic" in2="effect1_backgroundBlur_44_153" result="shape"/>
</filter>
<linearGradient id="paint0_linear_44_153" x1="207.269" y1="271.772" x2="1620.57" y2="586.726" gradientUnits="userSpaceOnUse">
<stop stop-color="#E5255E"/>
<stop offset="1" stop-color="#5C5BFF"/>
</linearGradient>
<linearGradient id="paint1_linear_44_153" x1="448" y1="319" x2="1441.97" y2="450.686" gradientUnits="userSpaceOnUse">
<stop stop-color="white" stop-opacity="0.03"/>
<stop offset="1" stop-color="white" stop-opacity="0.06"/>
</linearGradient>
</defs>
</svg>
