<svg width="25" height="24" viewBox="0 0 25 24" fill="none" xmlns="http://www.w3.org/2000/svg">
<g id="Sign and Symbol / copyright sign,sign,symbol,copyright,">
<path id="Vector" d="M11.5 9H13.5C13.7652 9 14.0196 9.10536 14.2071 9.29289C14.3946 9.48043 14.5 9.73478 14.5 10C14.5 10.2652 14.6054 10.5196 14.7929 10.7071C14.9804 10.8946 15.2348 11 15.5 11C15.7652 11 16.0196 10.8946 16.2071 10.7071C16.3946 10.5196 16.5 10.2652 16.5 10C16.5 9.20435 16.1839 8.44129 15.6213 7.87868C15.0587 7.31607 14.2956 7 13.5 7H11.5C10.7043 7 9.94129 7.31607 9.37868 7.87868C8.81607 8.44129 8.5 9.20435 8.5 10V14C8.5 14.7956 8.81607 15.5587 9.37868 16.1213C9.94129 16.6839 10.7043 17 11.5 17H13.5C14.2956 17 15.0587 16.6839 15.6213 16.1213C16.1839 15.5587 16.5 14.7956 16.5 14C16.5 13.7348 16.3946 13.4804 16.2071 13.2929C16.0196 13.1054 15.7652 13 15.5 13C15.2348 13 14.9804 13.1054 14.7929 13.2929C14.6054 13.4804 14.5 13.7348 14.5 14C14.5 14.2652 14.3946 14.5196 14.2071 14.7071C14.0196 14.8946 13.7652 15 13.5 15H11.5C11.2348 15 10.9804 14.8946 10.7929 14.7071C10.6054 14.5196 10.5 14.2652 10.5 14V10C10.5 9.73478 10.6054 9.48043 10.7929 9.29289C10.9804 9.10536 11.2348 9 11.5 9ZM12.5 2C10.5222 2 8.58879 2.58649 6.94429 3.6853C5.2998 4.78412 4.01808 6.3459 3.2612 8.17317C2.50433 10.0004 2.30629 12.0111 2.69214 13.9509C3.078 15.8907 4.0304 17.6725 5.42893 19.0711C6.82745 20.4696 8.60928 21.422 10.5491 21.8079C12.4889 22.1937 14.4996 21.9957 16.3268 21.2388C18.1541 20.4819 19.7159 19.2002 20.8147 17.5557C21.9135 15.9112 22.5 13.9778 22.5 12C22.5 10.6868 22.2413 9.38642 21.7388 8.17317C21.2362 6.95991 20.4996 5.85752 19.5711 4.92893C18.6425 4.00035 17.5401 3.26375 16.3268 2.7612C15.1136 2.25866 13.8132 2 12.5 2ZM12.5 20C10.9177 20 9.37103 19.5308 8.05543 18.6518C6.73984 17.7727 5.71446 16.5233 5.10896 15.0615C4.50346 13.5997 4.34503 11.9911 4.65371 10.4393C4.9624 8.88743 5.72432 7.46197 6.84314 6.34315C7.96196 5.22433 9.38743 4.4624 10.9393 4.15372C12.4911 3.84504 14.0997 4.00346 15.5615 4.60896C17.0233 5.21447 18.2727 6.23984 19.1518 7.55544C20.0308 8.87103 20.5 10.4177 20.5 12C20.5 14.1217 19.6571 16.1566 18.1569 17.6569C16.6566 19.1571 14.6217 20 12.5 20Z" fill="white"/>
</g>
</svg>
