<svg width="56" height="77" viewBox="0 0 56 77" fill="none" xmlns="http://www.w3.org/2000/svg">
<path d="M34.3182 69.1427V69.1288C34.3083 69.1417 34.2994 69.1545 34.2894 69.1674C32.3696 71.8236 30.1377 74.2419 27.65 76.3678C25.2426 74.2746 23.0967 71.8952 21.2314 69.3004C21.1972 69.2544 21.1293 69.1461 21.122 69.1383C16.2607 62.3829 13.4971 54.0898 13.4971 45.1332C13.4971 44.6941 13.504 44.256 13.5179 43.82C14.1225 43.9557 14.7201 44.1123 15.3078 44.2888C20.195 45.7526 24.4924 48.5802 27.759 52.3296C27.763 52.3335 27.767 52.3385 27.7699 52.3425L27.7779 52.3345L27.7799 52.3365C27.7818 52.3335 27.7848 52.3296 27.7878 52.3266L27.7908 52.3236C27.7957 52.3177 27.8007 52.3117 27.8066 52.3058C31.0703 48.5663 35.3608 45.7467 40.239 44.2858C40.8267 44.1094 41.4244 43.9528 42.0289 43.817V43.8239C42.0428 44.258 42.0498 44.6931 42.0498 45.1302C42.0498 54.0927 39.1845 62.3853 34.3182 69.1427Z" fill="url(#paint0_linear_110_1279)"/>
<path d="M48.3601 43.4885C48.3601 43.5041 48.3615 43.5184 48.3615 43.5341V43.5412C48.3487 43.5441 48.3344 43.5469 48.3216 43.5512V43.5412C47.4523 43.7365 46.593 43.9616 45.7479 44.2153C38.7334 46.3159 32.564 50.3704 27.8711 55.7474C27.8626 55.756 27.8554 55.7645 27.8483 55.773C23.1525 50.3832 16.9746 46.3202 9.94875 44.2153C9.10366 43.9616 8.24431 43.7365 7.37497 43.5412V43.5213C5.18315 43.0239 2.92147 42.7161 0.604248 42.612C2.14196 36.8645 5.4482 31.8395 9.90603 28.1584C13.2023 17.3389 19.5156 7.83759 27.8682 0.632202C36.2209 7.8376 42.5342 17.3403 45.8319 28.1599C50.2869 31.841 53.5931 36.8617 55.1308 42.6063C52.815 42.7004 50.5519 43.0011 48.3601 43.4885Z" fill="white"/>
<defs>
<linearGradient id="paint0_linear_110_1279" x1="27.7734" y1="43.817" x2="27.7734" y2="76.3678" gradientUnits="userSpaceOnUse">
<stop stop-color="#E5255E"/>
<stop offset="1" stop-color="#5C5BFF"/>
</linearGradient>
</defs>
</svg>
