<svg width="321" height="79" viewBox="0 0 321 79" fill="none" xmlns="http://www.w3.org/2000/svg">
<path d="M91.3982 52.4449V57.0177H71.9006V21.8417H76.9258V52.4449H91.3982Z" fill="white"/>
<path d="M117.026 41.6407V57.0177H112.453V53.5001C111.297 55.4599 108.131 57.6709 104.111 57.6709C99.2871 57.6709 95.0659 54.7564 95.0659 50.1834C95.0659 42.1935 104.764 41.9925 108.332 41.9925H112.453C112.453 38.1232 111.649 35.1081 106.373 35.1081C103.709 35.1081 100.895 36.4648 99.7896 37.3694L96.5735 34.9071C99.3876 32.3442 103.257 30.9372 107.277 30.9372C114.614 30.9372 117.026 35.5603 117.026 41.6407ZM112.453 45.5603H110.694C105.97 45.5603 99.7896 45.51 99.7896 49.9824C99.7896 51.9422 101.046 53.9523 105.116 53.9523C109.488 53.9523 112.152 50.887 112.453 49.7313V45.5603Z" fill="white"/>
<path d="M145.166 31.5403V57.0177H140.593V53.5001C139.086 55.7614 136.573 57.6709 132.754 57.6709C127.025 57.6709 122.955 52.8971 122.955 47.5201V31.5403H127.528V46.1634C127.528 49.7816 129.036 53.2991 133.809 53.2991C138.633 53.2991 140.593 49.1785 140.593 46.1634V31.5403H145.166Z" fill="white"/>
<path d="M173.306 41.088V57.0177H168.734V42.3945C168.734 38.8267 167.226 35.2589 162.452 35.2589C157.628 35.2589 155.668 39.4298 155.668 42.3945V57.0177H151.095V31.5403H155.668V35.1081C157.176 32.8469 159.688 30.9372 163.558 30.9372C169.286 30.9372 173.306 35.711 173.306 41.088Z" fill="white"/>
<path d="M198.482 49.2288L202.401 51.3393C200.09 55.1082 196.07 57.6709 191.095 57.6709C183.406 57.6709 177.728 51.6408 177.728 44.304C177.728 36.9673 183.406 30.9372 191.095 30.9372C196.07 30.9372 200.09 33.5001 202.401 37.2186L198.482 39.3795C196.974 36.8669 194.311 35.2588 191.095 35.2588C186.07 35.2588 182.401 39.078 182.401 44.304C182.401 49.4799 186.07 53.2991 191.095 53.2991C194.311 53.2991 196.974 51.7414 198.482 49.2288Z" fill="white"/>
<path d="M228.331 41.088V57.0177H223.708V42.3945C223.708 38.8267 222.2 35.2589 217.426 35.2589C212.602 35.2589 210.642 39.4298 210.642 42.3945V57.0177H206.069V21.8417H210.642V35.1081C212.15 32.8469 214.662 30.9372 218.532 30.9372C224.26 30.9372 228.331 35.711 228.331 41.088Z" fill="white"/>
<path d="M260.792 44.304C260.792 50.9875 256.069 57.6709 248.129 57.6709C243.707 57.6709 240.742 55.8618 238.833 53.4498V66.7163H234.26V31.5403H238.833V35.1081C240.742 32.7463 243.707 30.9372 248.129 30.9372C256.069 30.9372 260.792 37.6207 260.792 44.304ZM256.119 44.304C256.119 39.1784 252.903 35.2588 247.677 35.2588C242.049 35.2588 238.833 39.279 238.833 44.304C238.833 49.3291 242.049 53.2991 247.677 53.2991C252.903 53.2991 256.119 49.4296 256.119 44.304Z" fill="white"/>
<path d="M285.666 41.6407V57.0177H281.094V53.5001C279.938 55.4599 276.772 57.6709 272.752 57.6709C267.928 57.6709 263.707 54.7564 263.707 50.1834C263.707 42.1935 273.405 41.9925 276.973 41.9925H281.094C281.094 38.1232 280.289 35.1081 275.013 35.1081C272.35 35.1081 269.536 36.4648 268.43 37.3694L265.214 34.9071C268.028 32.3442 271.898 30.9372 275.918 30.9372C283.254 30.9372 285.666 35.5603 285.666 41.6407ZM281.094 45.5603H279.335C274.611 45.5603 268.43 45.51 268.43 49.9824C268.43 51.9422 269.687 53.9523 273.757 53.9523C278.129 53.9523 280.792 50.887 281.094 49.7313V45.5603Z" fill="white"/>
<path d="M316.621 21.8417V57.0177H312.048V53.4498C310.138 55.8618 307.224 57.6709 302.802 57.6709C294.862 57.6709 290.088 50.9876 290.088 44.304C290.088 37.6205 294.862 30.9372 302.802 30.9372C307.224 30.9372 310.138 32.7463 312.048 35.1081V21.8417H316.621ZM312.048 44.304C312.048 39.279 308.832 35.2589 303.254 35.2589C297.977 35.2589 294.812 39.1785 294.812 44.304C294.812 49.4296 297.977 53.2991 303.254 53.2991C308.832 53.2991 312.048 49.3292 312.048 44.304Z" fill="white"/>
<path d="M35.3182 70.1427V70.1288C35.3083 70.1417 35.2994 70.1545 35.2894 70.1674C33.3696 72.8236 31.1377 75.2419 28.65 77.3678C26.2426 75.2746 24.0967 72.8952 22.2314 70.3004C22.1972 70.2544 22.1293 70.1461 22.122 70.1383C17.2607 63.3829 14.4971 55.0898 14.4971 46.1332C14.4971 45.6941 14.504 45.256 14.5179 44.82C15.1225 44.9557 15.7201 45.1123 16.3078 45.2888C21.195 46.7526 25.4924 49.5802 28.759 53.3296C28.763 53.3335 28.767 53.3385 28.7699 53.3425L28.7779 53.3345L28.7799 53.3365C28.7818 53.3335 28.7848 53.3296 28.7878 53.3266L28.7908 53.3236C28.7957 53.3177 28.8007 53.3117 28.8066 53.3058C32.0703 49.5663 36.3608 46.7467 41.239 45.2858C41.8267 45.1094 42.4244 44.9528 43.0289 44.817V44.8239C43.0428 45.258 43.0498 45.6931 43.0498 46.1302C43.0498 55.0927 40.1845 63.3853 35.3182 70.1427Z" fill="url(#paint0_linear_110_1268)"/>
<path d="M49.3601 44.4885C49.3601 44.5041 49.3615 44.5184 49.3615 44.5341V44.5412C49.3487 44.5441 49.3344 44.5469 49.3216 44.5512V44.5412C48.4523 44.7365 47.593 44.9616 46.7479 45.2153C39.7334 47.3159 33.564 51.3704 28.8711 56.7474C28.8626 56.756 28.8554 56.7645 28.8483 56.773C24.1525 51.3832 17.9746 47.3202 10.9488 45.2153C10.1037 44.9616 9.24431 44.7365 8.37497 44.5412V44.5213C6.18315 44.0239 3.92147 43.7161 1.60425 43.612C3.14196 37.8645 6.4482 32.8395 10.906 29.1584C14.2023 18.3389 20.5156 8.83759 28.8682 1.6322C37.2209 8.8376 43.5342 18.3403 46.8319 29.1599C51.2869 32.841 54.5931 37.8617 56.1308 43.6063C53.815 43.7004 51.5519 44.0011 49.3601 44.4885Z" fill="white"/>
<defs>
<linearGradient id="paint0_linear_110_1268" x1="28.7734" y1="44.817" x2="28.7734" y2="77.3678" gradientUnits="userSpaceOnUse">
<stop stop-color="#E5255E"/>
<stop offset="1" stop-color="#5C5BFF"/>
</linearGradient>
</defs>
</svg>
