<svg width="48" height="48" viewBox="0 0 48 48" fill="none" xmlns="http://www.w3.org/2000/svg">
<path d="M35 17.9978C33.2095 17.9971 31.4467 18.4399 29.8691 19.2869C29.7252 18.9077 29.4693 18.5814 29.1354 18.3511C28.8016 18.1209 28.4056 17.9976 28 17.9978H20C19.7373 17.9977 19.4772 18.0493 19.2345 18.1498C18.9917 18.2502 18.7712 18.3975 18.5855 18.5833C18.3997 18.769 18.2524 18.9896 18.1519 19.2323C18.0515 19.475 17.9999 19.7351 18 19.9978V43.9978C17.9999 44.2605 18.0515 44.5206 18.1519 44.7634C18.2524 45.0061 18.3997 45.2266 18.5854 45.4124C18.7712 45.5981 18.9917 45.7454 19.2345 45.8459C19.4772 45.9463 19.7373 45.998 20 45.9978H28C28.2627 45.998 28.5228 45.9463 28.7655 45.8459C29.0083 45.7454 29.2288 45.5981 29.4146 45.4124C29.6003 45.2266 29.7476 45.0061 29.8481 44.7634C29.9485 44.5206 30.0002 44.2605 30 43.9978V32.9978C30 32.4674 30.2107 31.9587 30.5858 31.5836C30.9609 31.2085 31.4696 30.9978 32 30.9978C32.5304 30.9978 33.0391 31.2085 33.4142 31.5836C33.7893 31.9587 34 32.4674 34 32.9978V43.9978C33.9998 44.2605 34.0515 44.5206 34.1519 44.7634C34.2524 45.0061 34.3997 45.2266 34.5854 45.4124C34.7712 45.5981 34.9917 45.7454 35.2345 45.8459C35.4772 45.9463 35.7373 45.998 36 45.9978H44C44.2627 45.998 44.5228 45.9463 44.7656 45.8459C45.0083 45.7454 45.2288 45.5981 45.4146 45.4124C45.6003 45.2266 45.7476 45.0061 45.8481 44.7634C45.9485 44.5206 46.0002 44.2605 46 43.9978V28.9978C45.9964 26.0815 44.8363 23.2858 42.7742 21.2236C40.7121 19.1615 37.9163 18.0014 35 17.9978ZM42 41.9978H38V32.9978C38 31.4065 37.3679 29.8804 36.2426 28.7552C35.1174 27.63 33.5913 26.9978 32 26.9978C30.4087 26.9978 28.8826 27.63 27.7574 28.7552C26.6321 29.8804 26 31.4065 26 32.9978V41.9978H22V21.9978H26V23.4041C26.0002 23.8185 26.1291 24.2226 26.3689 24.5606C26.6087 24.8986 26.9474 25.1538 27.3385 25.291C27.7295 25.4282 28.1535 25.4406 28.5519 25.3265C28.9502 25.2124 29.3034 24.9775 29.5625 24.6541C30.4601 23.5141 31.6912 22.683 33.084 22.2766C34.4768 21.8702 35.9617 21.9089 37.3315 22.3872C38.7012 22.8656 39.8874 23.7598 40.7243 24.9449C41.5613 26.13 42.0073 27.547 42 28.9978V41.9978ZM14 17.9978H6C5.73732 17.9977 5.47718 18.0493 5.23446 18.1498C4.99174 18.2502 4.7712 18.3975 4.58545 18.5833C4.39971 18.769 4.25239 18.9896 4.15194 19.2323C4.05148 19.475 3.99985 19.7351 4 19.9978V43.9978C3.99985 44.2605 4.05148 44.5206 4.15193 44.7634C4.25239 45.0061 4.3997 45.2266 4.58545 45.4124C4.7712 45.5981 4.99174 45.7454 5.23446 45.8459C5.47718 45.9463 5.73732 45.998 6 45.9978H14C14.2627 45.998 14.5228 45.9463 14.7655 45.8459C15.0083 45.7454 15.2288 45.5981 15.4146 45.4124C15.6003 45.2266 15.7476 45.0061 15.8481 44.7634C15.9485 44.5206 16.0002 44.2605 16 43.9978V19.9978C16.0002 19.7351 15.9485 19.475 15.8481 19.2323C15.7476 18.9896 15.6003 18.769 15.4146 18.5833C15.2288 18.3975 15.0083 18.2502 14.7655 18.1498C14.5228 18.0493 14.2627 17.9977 14 17.9978ZM12 41.9978H8V21.9978H12V41.9978ZM10.0293 3.08382C9.15402 3.03143 8.27724 3.15761 7.45226 3.45471C6.62728 3.7518 5.87135 4.2136 5.23044 4.812C4.58953 5.41041 4.07703 6.13293 3.72412 6.93562C3.37121 7.73831 3.18525 8.60439 3.17756 9.4812C3.16986 10.358 3.3406 11.2272 3.67937 12.036C4.01815 12.8447 4.51789 13.5761 5.1482 14.1857C5.77851 14.7953 6.52622 15.2702 7.34586 15.5818C8.1655 15.8933 9.03994 16.0348 9.916 15.9978H9.97264C10.8502 16.0499 11.7292 15.9226 12.556 15.6235C13.3827 15.3245 14.1397 14.86 14.7808 14.2584C15.422 13.6569 15.9337 12.931 16.2848 12.125C16.6359 11.319 16.819 10.4499 16.8228 9.57074C16.8267 8.69161 16.6513 7.82092 16.3072 7.01188C15.9632 6.20284 15.4579 5.47244 14.822 4.86531C14.1862 4.25818 13.4333 3.78707 12.6092 3.48076C11.7852 3.17446 10.9073 3.03939 10.0293 3.08382H10.0293ZM9.97266 11.9978H9.916C9.57014 12.0398 9.21929 12.0074 8.88698 11.9027C8.55468 11.798 8.24861 11.6234 7.98929 11.3907C7.72997 11.1581 7.5234 10.8726 7.38343 10.5536C7.24346 10.2345 7.17333 9.88922 7.17774 9.54084C7.17774 8.04864 8.29688 7.0838 10.0293 7.0838C10.3787 7.03722 10.734 7.06606 11.0713 7.16837C11.4086 7.27068 11.7201 7.44408 11.9848 7.6769C12.2494 7.90973 12.4611 8.19656 12.6056 8.51808C12.75 8.83961 12.8239 9.18835 12.8223 9.54084C12.8223 11.033 11.7031 11.9978 9.97266 11.9978Z" fill="white"/>
</svg>
