<svg width="32" height="32" viewBox="0 0 32 32" fill="none" xmlns="http://www.w3.org/2000/svg">
<g clip-path="url(#clip0_96_701)">
<path d="M0.299988 0.0250015C0.299988 0.0900002 0.454988 0.35 0.494988 0.35C0.519988 0.35 0.564988 0.42 0.599988 0.5C0.634988 0.585001 0.689988 0.67 0.719988 0.690001C0.749988 0.710001 0.819988 0.810001 0.874988 0.91C0.929988 1.015 0.989988 1.1 1.00999 1.1C1.02499 1.1 1.05499 1.14 1.06999 1.19C1.08999 1.24 1.13999 1.325 1.18999 1.38C1.23499 1.43 1.43499 1.71 1.62499 2C1.81999 2.29 2.01499 2.57 2.06499 2.62C2.10999 2.675 2.14999 2.745 2.14999 2.78C2.14999 2.815 2.17999 2.865 2.21999 2.885C2.25499 2.905 2.32499 2.99 2.36999 3.075C2.47999 3.27 2.67499 3.555 2.77499 3.655C2.81499 3.7 2.84999 3.75 2.84999 3.77C2.84999 3.81 3.19499 4.315 3.24999 4.35C3.26999 4.365 3.32499 4.45 3.36999 4.535C3.41499 4.625 3.46999 4.7 3.48999 4.7C3.50999 4.7 3.56999 4.79 3.61999 4.9C3.67499 5.01 3.73499 5.1 3.75499 5.1C3.77499 5.1 3.80499 5.14 3.81999 5.19C3.83999 5.24 3.88999 5.325 3.93999 5.38C3.98499 5.43 4.18499 5.71 4.37499 6C4.56999 6.29 4.76499 6.57 4.80999 6.62C4.85999 6.675 4.89999 6.75 4.89999 6.785C4.89999 6.825 4.93499 6.865 4.97499 6.88C5.01499 6.9 5.04999 6.93 5.04999 6.96C5.04999 7.02 5.45999 7.615 5.53999 7.665C5.56999 7.685 5.59999 7.725 5.59999 7.755C5.59999 7.78 5.69499 7.94 5.81499 8.105C5.92999 8.27 6.06499 8.465 6.10999 8.535C6.15499 8.605 6.20999 8.68 6.23499 8.695C6.25499 8.71 6.31999 8.81 6.37499 8.91C6.42999 9.015 6.48999 9.1 6.50999 9.1C6.52499 9.1 6.55499 9.14 6.56999 9.19C6.58999 9.24 6.63999 9.325 6.68999 9.38C6.76499 9.46 6.95499 9.74 7.12499 10.005C7.25499 10.215 7.48499 10.535 7.56499 10.62C7.60999 10.675 7.64999 10.75 7.64999 10.785C7.64999 10.825 7.68499 10.865 7.72499 10.88C7.76499 10.9 7.79999 10.93 7.79999 10.96C7.79999 11.02 8.20999 11.615 8.28999 11.665C8.31999 11.685 8.34999 11.725 8.34999 11.755C8.34999 11.78 8.44499 11.94 8.56499 12.105C8.67999 12.27 8.81499 12.465 8.85999 12.535C8.90499 12.605 8.95999 12.68 8.98499 12.695C9.00499 12.71 9.06999 12.81 9.12499 12.91C9.17999 13.015 9.23499 13.1 9.24999 13.1C9.26499 13.1 9.31999 13.18 9.36999 13.275C9.42499 13.37 9.47999 13.45 9.49499 13.45C9.51499 13.45 9.56999 13.535 9.62499 13.635C9.67999 13.74 9.74499 13.84 9.76499 13.855C9.78999 13.875 9.83499 13.93 9.86499 13.985C9.98499 14.19 10.215 14.52 10.305 14.62C10.36 14.675 10.4 14.745 10.4 14.78C10.4 14.815 10.43 14.865 10.465 14.885C10.5 14.905 10.57 15.01 10.625 15.11C10.68 15.215 10.735 15.3 10.755 15.3C10.77 15.3 10.825 15.38 10.88 15.475C10.93 15.57 10.99 15.65 11.015 15.65C11.035 15.65 11.075 15.7 11.1 15.76C11.125 15.825 11.225 15.985 11.325 16.125C11.425 16.26 11.55 16.45 11.61 16.535C11.665 16.625 11.725 16.7 11.74 16.7C11.76 16.7 11.82 16.79 11.87 16.9C11.925 17.01 11.98 17.1 12 17.1C12.02 17.1 12.065 17.17 12.1 17.25C12.135 17.335 12.19 17.42 12.22 17.44C12.285 17.48 12.45 17.73 12.45 17.785C12.45 17.81 12.365 17.92 12.265 18.03C12.16 18.145 11.985 18.345 11.875 18.475C11.765 18.61 11.61 18.79 11.525 18.88C11.445 18.965 11.33 19.09 11.28 19.155C11.225 19.22 11.105 19.365 11.01 19.475C10.915 19.585 10.775 19.755 10.69 19.85C10.27 20.345 10.165 20.475 10.025 20.625C9.94499 20.715 9.82999 20.84 9.77999 20.905C9.72499 20.97 9.61499 21.105 9.52999 21.205C9.44499 21.3 9.26499 21.515 9.12499 21.675C8.98999 21.83 8.81999 22.025 8.74999 22.105C8.67999 22.18 8.54499 22.34 8.44499 22.46C8.34499 22.58 8.16499 22.79 8.04499 22.93C7.92499 23.07 7.72499 23.305 7.59999 23.45C7.38999 23.695 7.22499 23.885 7.01499 24.125C6.96499 24.18 6.78499 24.395 6.60999 24.6C6.27499 25 5.96999 25.35 5.72499 25.625C5.64499 25.715 5.48499 25.895 5.37499 26.025C5.26499 26.155 5.12999 26.315 5.07499 26.375C5.01999 26.435 4.87499 26.605 4.74999 26.755C4.43999 27.125 4.40999 27.16 4.22999 27.36C4.14499 27.455 3.97499 27.65 3.84999 27.8C3.72499 27.945 3.58999 28.105 3.54999 28.15C3.50999 28.195 3.39499 28.33 3.29499 28.45C3.19499 28.575 3.04499 28.745 2.96999 28.83C2.88999 28.915 2.73499 29.095 2.62499 29.225C2.51499 29.36 2.35499 29.545 2.26999 29.64C2.08999 29.84 2.05999 29.875 1.74999 30.245C1.62499 30.395 1.47999 30.565 1.42499 30.625C1.36999 30.685 1.23499 30.845 1.12499 30.975C1.01499 31.105 0.859988 31.28 0.774988 31.37C0.594988 31.565 0.329988 31.895 0.309988 31.955C0.299988 31.98 0.939988 32 1.73499 32C2.95999 32 3.19499 31.99 3.28999 31.92C3.34999 31.88 3.39999 31.82 3.39999 31.79C3.39999 31.765 3.45999 31.68 3.53499 31.605C3.61499 31.53 3.77499 31.35 3.89999 31.205C4.02499 31.06 4.17999 30.885 4.24499 30.81C4.30999 30.735 4.44499 30.575 4.54499 30.455C4.64499 30.33 4.76999 30.18 4.82499 30.12C4.87999 30.06 5.01499 29.905 5.12499 29.775C5.23499 29.645 5.39499 29.465 5.47499 29.375C5.55999 29.285 5.66999 29.16 5.71999 29.095C5.77499 29.03 5.89499 28.885 5.98999 28.775C6.08499 28.665 6.21999 28.5 6.29499 28.415C6.36499 28.325 6.51999 28.15 6.63999 28.03C6.75499 27.91 6.84999 27.79 6.84999 27.765C6.84999 27.74 6.90999 27.665 6.98999 27.595C7.06499 27.525 7.16999 27.415 7.21999 27.345C7.27499 27.28 7.38499 27.145 7.46999 27.045C7.55499 26.95 7.73999 26.735 7.87499 26.575C8.01499 26.42 8.17999 26.225 8.24999 26.145C8.31999 26.07 8.45499 25.91 8.55499 25.79C8.65499 25.67 8.83499 25.46 8.95499 25.32C9.07499 25.18 9.27499 24.945 9.39999 24.8C9.52499 24.655 9.69499 24.465 9.77499 24.375C9.85999 24.285 9.94999 24.18 9.97499 24.14C10.005 24.105 10.18 23.9 10.365 23.69C10.55 23.48 10.7 23.295 10.7 23.285C10.7 23.27 10.8 23.15 10.925 23.02C11.155 22.775 11.24 22.68 11.625 22.225C11.735 22.095 11.87 21.935 11.925 21.875C11.98 21.815 12.125 21.645 12.25 21.495C12.56 21.125 12.59 21.09 12.77 20.89C12.855 20.795 13.025 20.6 13.15 20.45C13.54 19.985 13.85 19.675 13.85 19.74C13.85 19.775 13.945 19.94 14.065 20.105C14.18 20.27 14.315 20.465 14.36 20.535C14.405 20.605 14.46 20.68 14.485 20.695C14.505 20.71 14.57 20.805 14.62 20.9C14.675 20.995 14.735 21.085 14.75 21.1C14.77 21.115 14.825 21.2 14.87 21.285C14.915 21.375 14.97 21.45 14.99 21.45C15.01 21.45 15.07 21.535 15.125 21.635C15.18 21.74 15.25 21.845 15.285 21.865C15.32 21.885 15.35 21.93 15.35 21.965C15.35 22 15.395 22.08 15.45 22.15C15.705 22.475 15.9 22.755 15.9 22.8C15.9 22.825 15.93 22.865 15.965 22.885C15.995 22.905 16.07 23.005 16.12 23.1C16.175 23.195 16.26 23.32 16.31 23.37C16.36 23.425 16.4 23.485 16.4 23.505C16.4 23.525 16.43 23.575 16.465 23.61C16.525 23.675 16.97 24.32 17.075 24.495C17.105 24.54 17.185 24.655 17.265 24.755C17.34 24.855 17.4 24.96 17.4 24.99C17.4 25.02 17.43 25.065 17.47 25.085C17.505 25.105 17.575 25.2 17.62 25.285C17.665 25.375 17.72 25.45 17.745 25.45C17.77 25.45 17.8 25.49 17.82 25.535C17.86 25.66 17.965 25.82 18.04 25.865C18.07 25.885 18.1 25.93 18.1 25.965C18.1 26 18.145 26.08 18.2 26.15C18.455 26.475 18.65 26.755 18.65 26.8C18.65 26.825 18.68 26.865 18.715 26.885C18.745 26.905 18.82 27.005 18.87 27.1C18.925 27.195 19.01 27.32 19.06 27.37C19.11 27.425 19.15 27.485 19.15 27.505C19.15 27.525 19.18 27.575 19.215 27.61C19.275 27.675 19.72 28.32 19.825 28.495C19.855 28.54 19.935 28.655 20.015 28.755C20.09 28.855 20.15 28.96 20.15 28.99C20.15 29.02 20.18 29.065 20.22 29.085C20.255 29.105 20.325 29.2 20.37 29.285C20.415 29.375 20.47 29.45 20.49 29.45C20.51 29.45 20.565 29.54 20.62 29.65C20.67 29.755 20.745 29.855 20.78 29.87C20.82 29.885 20.85 29.925 20.85 29.965C20.85 30 20.89 30.075 20.94 30.13C20.985 30.185 21.115 30.36 21.22 30.525C21.33 30.69 21.445 30.845 21.47 30.875C21.5 30.9 21.57 31.01 21.625 31.11C21.68 31.215 21.735 31.3 21.755 31.3C21.77 31.3 21.825 31.38 21.88 31.475C21.93 31.57 21.985 31.65 22 31.65C22.015 31.65 22.07 31.73 22.12 31.825L22.215 32H26.96C29.565 32 31.7 31.99 31.7 31.975C31.7 31.91 31.545 31.65 31.505 31.65C31.48 31.65 31.435 31.58 31.4 31.5C31.365 31.415 31.31 31.33 31.28 31.31C31.25 31.29 31.18 31.19 31.125 31.085C31.07 30.985 31.01 30.9 30.99 30.9C30.975 30.9 30.945 30.86 30.93 30.81C30.91 30.76 30.86 30.675 30.81 30.62C30.765 30.57 30.57 30.29 30.375 30C30.185 29.71 29.985 29.43 29.94 29.38C29.89 29.325 29.85 29.25 29.85 29.215C29.85 29.175 29.815 29.135 29.775 29.12C29.735 29.1 29.7 29.065 29.7 29.03C29.7 29 29.62 28.875 29.525 28.76C29.43 28.64 29.34 28.5 29.325 28.45C29.31 28.4 29.265 28.345 29.225 28.33C29.185 28.315 29.15 28.28 29.15 28.25C29.15 28.195 28.815 27.695 28.75 27.65C28.73 27.635 28.675 27.55 28.63 27.46C28.585 27.375 28.53 27.3 28.51 27.3C28.49 27.3 28.43 27.21 28.38 27.1C28.325 26.99 28.27 26.9 28.255 26.9C28.235 26.9 28.18 26.82 28.13 26.725C28.075 26.63 28.02 26.55 28.005 26.55C27.985 26.55 27.93 26.465 27.875 26.36C27.82 26.26 27.75 26.15 27.72 26.125C27.695 26.095 27.58 25.94 27.47 25.775C27.365 25.61 27.235 25.435 27.19 25.38C27.14 25.325 27.1 25.25 27.1 25.215C27.1 25.175 27.065 25.135 27.025 25.12C26.985 25.1 26.95 25.07 26.95 25.04C26.95 24.98 26.54 24.385 26.465 24.335C26.43 24.315 26.4 24.275 26.4 24.245C26.4 24.22 26.305 24.06 26.19 23.895C26.07 23.73 25.935 23.535 25.89 23.465C25.845 23.395 25.79 23.32 25.765 23.305C25.745 23.29 25.68 23.19 25.625 23.085C25.57 22.985 25.515 22.9 25.5 22.9C25.485 22.9 25.43 22.82 25.38 22.725C25.325 22.63 25.27 22.55 25.255 22.55C25.235 22.55 25.18 22.465 25.125 22.36C25.07 22.26 25.005 22.16 24.985 22.145C24.96 22.125 24.915 22.07 24.885 22.015C24.765 21.81 24.535 21.48 24.445 21.38C24.39 21.325 24.35 21.25 24.35 21.215C24.35 21.175 24.315 21.135 24.275 21.12C24.235 21.1 24.2 21.07 24.2 21.04C24.2 20.98 23.79 20.385 23.715 20.335C23.68 20.315 23.65 20.275 23.65 20.245C23.65 20.22 23.555 20.06 23.435 19.895C23.32 19.73 23.185 19.535 23.14 19.465C23.095 19.395 23.04 19.32 23.015 19.305C22.995 19.29 22.93 19.195 22.88 19.1C22.825 19.005 22.765 18.915 22.75 18.9C22.73 18.885 22.675 18.8 22.63 18.71C22.585 18.625 22.53 18.55 22.51 18.55C22.49 18.55 22.43 18.465 22.375 18.36C22.32 18.26 22.25 18.155 22.215 18.135C22.18 18.115 22.15 18.07 22.15 18.035C22.15 18 22.095 17.91 22.025 17.83C21.955 17.75 21.9 17.67 21.9 17.655C21.9 17.64 21.83 17.545 21.75 17.45C21.67 17.355 21.6 17.25 21.6 17.215C21.6 17.18 21.57 17.135 21.535 17.115C21.5 17.095 21.43 16.99 21.375 16.885C21.32 16.785 21.265 16.7 21.25 16.7C21.235 16.7 21.18 16.625 21.125 16.535C21.075 16.45 21.005 16.355 20.965 16.335C20.93 16.315 20.9 16.275 20.9 16.245C20.9 16.22 20.805 16.06 20.685 15.895C20.57 15.73 20.435 15.535 20.39 15.465C20.345 15.395 20.29 15.32 20.265 15.305C20.24 15.29 20.18 15.19 20.135 15.085C20.085 14.985 20.03 14.9 20.005 14.9C19.985 14.9 19.93 14.82 19.885 14.725C19.84 14.63 19.785 14.55 19.76 14.55C19.74 14.55 19.68 14.465 19.625 14.36C19.57 14.26 19.5 14.155 19.465 14.135C19.43 14.115 19.4 14.065 19.4 14.03C19.4 13.995 19.36 13.925 19.305 13.87C19.145 13.695 19.09 13.56 19.15 13.455C19.175 13.4 19.22 13.35 19.24 13.34C19.265 13.335 19.435 13.145 19.62 12.925C19.985 12.49 20.29 12.135 20.525 11.88C20.61 11.79 20.765 11.605 20.875 11.47C20.985 11.335 21.12 11.18 21.175 11.12C21.23 11.065 21.375 10.895 21.5 10.745C21.81 10.375 21.84 10.34 22.02 10.14C22.105 10.045 22.275 9.85 22.4 9.7C22.525 9.555 22.66 9.395 22.7 9.35C22.74 9.305 22.875 9.145 23 8.995C23.12 8.845 23.26 8.695 23.31 8.66C23.36 8.625 23.4 8.57 23.4 8.54C23.4 8.515 23.46 8.43 23.535 8.355C23.615 8.28 23.775 8.1 23.9 7.955C24.025 7.81 24.18 7.635 24.245 7.56C24.31 7.485 24.445 7.325 24.545 7.205C24.645 7.08 24.77 6.93 24.825 6.87C24.88 6.81 25.015 6.655 25.125 6.525C25.235 6.395 25.395 6.215 25.475 6.125C25.56 6.035 25.67 5.91 25.72 5.845C25.775 5.78 25.885 5.645 25.97 5.545C26.055 5.445 26.24 5.235 26.375 5.075C26.515 4.91 26.675 4.73 26.74 4.67C26.8 4.61 26.85 4.545 26.85 4.53C26.85 4.51 26.94 4.4 27.045 4.285C27.155 4.17 27.34 3.96 27.46 3.82C27.86 3.345 28.125 3.035 28.25 2.895C28.32 2.82 28.455 2.66 28.555 2.54C29.085 1.92 29.57 1.355 29.775 1.13C29.86 1.04 30.015 0.855001 30.125 0.720001C30.235 0.59 30.41 0.390001 30.515 0.275002C30.615 0.165001 30.7 0.0600014 30.7 0.0400009C30.7 0.0150013 30.045 0 29.245 0H27.79L27.66 0.140001C27.585 0.215 27.435 0.385 27.325 0.515001C27.215 0.645 27.045 0.845001 26.945 0.965C26.84 1.08 26.655 1.3 26.525 1.45C26.145 1.895 25.885 2.195 25.725 2.37C25.645 2.46 25.485 2.645 25.375 2.78C25.265 2.915 25.13 3.07 25.075 3.13C25.02 3.185 24.875 3.355 24.75 3.505C24.46 3.85 24.42 3.9 24.23 4.115C24.145 4.21 23.975 4.41 23.85 4.55C23.725 4.695 23.59 4.85 23.55 4.895C23.51 4.945 23.375 5.105 23.25 5.255C23.13 5.405 22.99 5.555 22.94 5.59C22.89 5.625 22.85 5.68 22.85 5.71C22.85 5.735 22.79 5.82 22.71 5.895C22.635 5.97 22.475 6.15 22.35 6.295C22.225 6.44 22.07 6.615 22.005 6.69C21.94 6.765 21.805 6.925 21.705 7.045C21.605 7.17 21.48 7.32 21.425 7.38C21.37 7.44 21.235 7.595 21.125 7.725C21.015 7.855 20.86 8.035 20.775 8.125C20.695 8.215 20.58 8.34 20.53 8.405C20.475 8.47 20.365 8.605 20.28 8.705C20.195 8.805 20.015 9.015 19.875 9.175C19.74 9.34 19.575 9.52 19.515 9.58C19.45 9.64 19.4 9.71 19.4 9.74C19.4 9.77 19.36 9.825 19.31 9.86C19.255 9.895 19.075 10.095 18.905 10.3C18.57 10.705 18.2 11.13 18 11.35C17.93 11.425 17.85 11.525 17.82 11.575C17.775 11.655 17.745 11.63 17.56 11.36C17.445 11.19 17.35 11.03 17.35 11.005C17.35 10.975 17.32 10.935 17.28 10.915C17.245 10.895 17.175 10.8 17.13 10.71C17.085 10.625 17.03 10.55 17.005 10.55C16.98 10.55 16.95 10.51 16.93 10.46C16.89 10.34 16.785 10.18 16.715 10.135C16.68 10.115 16.65 10.07 16.65 10.035C16.65 10 16.605 9.92 16.55 9.85C16.295 9.525 16.1 9.245 16.1 9.2C16.1 9.175 16.07 9.135 16.04 9.115C16.005 9.095 15.93 8.995 15.88 8.9C15.825 8.805 15.74 8.68 15.69 8.63C15.64 8.575 15.6 8.515 15.6 8.495C15.6 8.475 15.57 8.425 15.535 8.39C15.475 8.325 15.03 7.68 14.925 7.505C14.9 7.46 14.815 7.345 14.735 7.245C14.66 7.145 14.6 7.04 14.6 7.01C14.6 6.98 14.57 6.935 14.53 6.915C14.495 6.895 14.425 6.8 14.38 6.71C14.335 6.625 14.28 6.55 14.255 6.55C14.23 6.55 14.2 6.51 14.18 6.46C14.14 6.34 14.035 6.18 13.965 6.135C13.93 6.115 13.9 6.065 13.9 6.03C13.9 5.995 13.86 5.925 13.815 5.87C13.765 5.815 13.635 5.64 13.53 5.475C13.42 5.31 13.305 5.15 13.28 5.125C13.25 5.095 13.18 4.995 13.13 4.9C13.075 4.805 12.99 4.68 12.94 4.63C12.89 4.575 12.85 4.515 12.85 4.495C12.85 4.475 12.82 4.425 12.785 4.39C12.755 4.355 12.63 4.18 12.515 4C12.4 3.82 12.27 3.64 12.225 3.595C12.185 3.55 12.15 3.495 12.15 3.47C12.145 3.445 12.08 3.345 12 3.25C11.915 3.155 11.85 3.05 11.85 3.015C11.85 2.985 11.82 2.935 11.78 2.915C11.745 2.895 11.675 2.8 11.63 2.71C11.585 2.625 11.53 2.55 11.51 2.55C11.49 2.55 11.435 2.46 11.38 2.35C11.33 2.245 11.255 2.145 11.22 2.13C11.18 2.115 11.15 2.075 11.15 2.035C11.15 2 11.11 1.925 11.065 1.87C11.015 1.82 10.82 1.54 10.625 1.25C10.435 0.960001 10.235 0.68 10.19 0.630001C10.14 0.575001 10.1 0.505001 10.1 0.470001C10.1 0.435001 10.07 0.385 10.035 0.365C9.99499 0.345001 9.92499 0.25 9.87499 0.16L9.77999 0H5.03999C2.43499 0 0.299988 0.0100002 0.299988 0.0250015ZM8.34999 2.2C8.34999 2.245 8.53999 2.52 8.79999 2.85C8.85499 2.92 8.89999 3 8.89999 3.035C8.89999 3.07 8.92999 3.115 8.96499 3.135C9.01499 3.17 9.28999 3.55 9.60999 4.035C9.65499 4.105 9.70999 4.18 9.73499 4.195C9.75499 4.21 9.81999 4.305 9.86999 4.4C9.92499 4.495 9.99499 4.595 10.035 4.615C10.07 4.635 10.1 4.675 10.1 4.7C10.1 4.745 10.295 5.025 10.55 5.35C10.605 5.42 10.65 5.5 10.65 5.535C10.65 5.57 10.68 5.615 10.715 5.635C10.765 5.67 11.04 6.05 11.36 6.535C11.405 6.605 11.46 6.68 11.485 6.695C11.505 6.71 11.57 6.81 11.625 6.91C11.68 7.015 11.74 7.1 11.76 7.1C11.78 7.1 11.835 7.18 11.88 7.275C11.925 7.37 11.98 7.45 12 7.45C12.025 7.45 12.055 7.49 12.07 7.535C12.085 7.585 12.165 7.705 12.25 7.8C12.33 7.895 12.4 8 12.4 8.035C12.4 8.07 12.43 8.115 12.465 8.135C12.515 8.17 12.79 8.55 13.11 9.035C13.155 9.105 13.21 9.18 13.235 9.195C13.255 9.21 13.32 9.31 13.375 9.41C13.43 9.515 13.49 9.6 13.51 9.6C13.53 9.6 13.585 9.68 13.63 9.775C13.675 9.87 13.73 9.95 13.75 9.95C13.775 9.95 13.805 9.99 13.82 10.035C13.835 10.085 13.915 10.205 14 10.3C14.08 10.395 14.15 10.5 14.15 10.535C14.15 10.57 14.18 10.615 14.215 10.635C14.265 10.67 14.54 11.05 14.86 11.535C14.905 11.605 14.96 11.68 14.985 11.695C15.005 11.71 15.07 11.805 15.12 11.9C15.175 11.995 15.23 12.085 15.245 12.1C15.265 12.115 15.32 12.19 15.37 12.275C15.425 12.355 15.485 12.445 15.51 12.475C15.695 12.705 15.9 13.01 15.9 13.05C15.9 13.075 15.93 13.115 15.965 13.135C16.005 13.155 16.05 13.21 16.065 13.25C16.11 13.35 16.43 13.805 16.525 13.905C16.565 13.95 16.6 14.01 16.6 14.04C16.6 14.07 16.64 14.125 16.685 14.16C16.735 14.195 16.82 14.305 16.87 14.4C16.925 14.495 16.98 14.585 16.995 14.6C17.015 14.615 17.07 14.69 17.12 14.775C17.175 14.855 17.235 14.945 17.26 14.975C17.45 15.215 17.65 15.51 17.65 15.55C17.65 15.58 17.685 15.615 17.725 15.63C17.765 15.65 17.8 15.685 17.8 15.72C17.8 15.75 17.88 15.875 17.975 15.99C18.07 16.11 18.16 16.25 18.175 16.305C18.195 16.355 18.23 16.4 18.255 16.4C18.28 16.4 18.32 16.44 18.335 16.485C18.365 16.56 18.58 16.875 18.745 17.08C18.765 17.105 18.81 17.18 18.845 17.235C18.875 17.295 18.93 17.37 18.965 17.41C19 17.445 19.125 17.625 19.25 17.81C19.37 18 19.485 18.15 19.51 18.15C19.53 18.15 19.55 18.175 19.55 18.2C19.55 18.27 19.955 18.86 20.04 18.915C20.07 18.935 20.1 18.985 20.1 19.02C20.1 19.055 20.145 19.125 20.195 19.17C20.25 19.22 20.33 19.335 20.375 19.43C20.42 19.525 20.475 19.6 20.5 19.6C20.525 19.6 20.555 19.64 20.57 19.69C20.59 19.74 20.64 19.825 20.69 19.88C20.735 19.935 20.865 20.11 20.97 20.275C21.08 20.44 21.195 20.595 21.22 20.625C21.25 20.65 21.32 20.76 21.375 20.865C21.43 20.965 21.485 21.05 21.5 21.05C21.515 21.05 21.57 21.125 21.625 21.21C21.675 21.3 21.745 21.395 21.785 21.415C21.82 21.435 21.85 21.485 21.85 21.52C21.85 21.555 21.895 21.625 21.945 21.67C22 21.72 22.08 21.835 22.125 21.93C22.17 22.025 22.225 22.1 22.245 22.1C22.27 22.1 22.315 22.17 22.35 22.25C22.385 22.335 22.44 22.42 22.47 22.44C22.5 22.46 22.685 22.71 22.875 23C23.07 23.29 23.265 23.57 23.31 23.62C23.36 23.675 23.41 23.76 23.43 23.81C23.445 23.86 23.48 23.9 23.505 23.9C23.53 23.9 23.57 23.94 23.585 23.99C23.625 24.1 23.915 24.52 24.02 24.63C24.065 24.67 24.1 24.73 24.1 24.755C24.1 24.78 24.14 24.84 24.19 24.89C24.235 24.94 24.435 25.215 24.625 25.5C24.82 25.79 25.015 26.07 25.06 26.12C25.11 26.175 25.16 26.26 25.18 26.31C25.195 26.36 25.23 26.4 25.255 26.4C25.28 26.4 25.32 26.44 25.335 26.485C25.375 26.59 25.69 27.065 25.75 27.1C25.77 27.115 25.825 27.2 25.87 27.285C25.915 27.375 25.97 27.45 25.99 27.45C26.01 27.45 26.07 27.535 26.125 27.635C26.18 27.74 26.25 27.845 26.285 27.865C26.32 27.885 26.35 27.925 26.35 27.95C26.35 27.99 26.555 28.295 26.74 28.525C26.765 28.555 26.825 28.645 26.88 28.725C26.93 28.81 26.985 28.885 27 28.9C27.015 28.915 27.125 29.075 27.25 29.26C27.37 29.45 27.485 29.6 27.5 29.6C27.515 29.6 27.57 29.68 27.615 29.775L27.7 29.95H25.685L23.675 29.945L23.525 29.735C23.445 29.62 23.36 29.485 23.34 29.435C23.32 29.39 23.28 29.35 23.25 29.35C23.225 29.35 23.2 29.32 23.2 29.285C23.2 29.255 23.12 29.125 23.025 29.01C22.93 28.89 22.84 28.75 22.825 28.695C22.805 28.645 22.77 28.6 22.745 28.6C22.72 28.6 22.68 28.56 22.665 28.515C22.635 28.44 22.53 28.29 22.26 27.925C22.24 27.895 22.18 27.81 22.13 27.725C22.075 27.645 22.015 27.555 21.99 27.525C21.825 27.32 21.615 27.01 21.585 26.935C21.57 26.89 21.53 26.85 21.5 26.85C21.475 26.85 21.45 26.82 21.45 26.785C21.45 26.755 21.37 26.625 21.275 26.51C21.18 26.39 21.09 26.25 21.075 26.2C21.06 26.15 21.015 26.095 20.975 26.08C20.935 26.065 20.9 26.02 20.9 25.985C20.9 25.945 20.855 25.875 20.805 25.83C20.75 25.78 20.67 25.665 20.625 25.57C20.58 25.475 20.525 25.4 20.5 25.4C20.475 25.4 20.445 25.36 20.43 25.31C20.41 25.26 20.36 25.175 20.31 25.12C20.265 25.065 20.135 24.89 20.03 24.725C19.92 24.56 19.805 24.4 19.78 24.375C19.75 24.345 19.68 24.24 19.625 24.14C19.57 24.035 19.515 23.95 19.5 23.95C19.485 23.95 19.43 23.875 19.375 23.79C19.325 23.7 19.255 23.605 19.215 23.585C19.18 23.565 19.15 23.515 19.15 23.48C19.15 23.445 19.105 23.375 19.055 23.33C19 23.28 18.92 23.165 18.875 23.07C18.83 22.975 18.775 22.9 18.755 22.9C18.73 22.9 18.685 22.83 18.65 22.75C18.615 22.665 18.56 22.58 18.53 22.56C18.5 22.54 18.32 22.29 18.125 22C17.935 21.71 17.735 21.43 17.69 21.38C17.64 21.325 17.59 21.24 17.57 21.19C17.555 21.14 17.525 21.1 17.5 21.1C17.475 21.1 17.42 21.025 17.375 20.93C17.33 20.835 17.25 20.72 17.195 20.67C17.145 20.625 17.1 20.555 17.1 20.52C17.1 20.485 17.07 20.435 17.03 20.415C16.995 20.395 16.925 20.3 16.88 20.21C16.835 20.125 16.78 20.05 16.76 20.05C16.74 20.05 16.68 19.965 16.625 19.86C16.57 19.76 16.5 19.65 16.47 19.625C16.445 19.595 16.33 19.44 16.22 19.275C16.115 19.11 15.985 18.935 15.94 18.88C15.89 18.825 15.84 18.74 15.82 18.69C15.805 18.64 15.77 18.6 15.745 18.6C15.72 18.6 15.68 18.56 15.665 18.51C15.625 18.41 15.31 17.935 15.25 17.9C15.23 17.885 15.175 17.8 15.13 17.71C15.085 17.625 15.03 17.55 15.005 17.55C14.98 17.55 14.95 17.51 14.93 17.46C14.9 17.36 14.795 17.2 14.72 17.125C14.695 17.1 14.58 16.94 14.47 16.775C14.365 16.61 14.235 16.435 14.19 16.38C14.14 16.325 14.09 16.24 14.07 16.19C14.055 16.14 14.02 16.1 13.995 16.1C13.97 16.1 13.93 16.06 13.915 16.01C13.875 15.91 13.56 15.435 13.5 15.4C13.48 15.385 13.425 15.3 13.38 15.21C13.335 15.125 13.28 15.05 13.255 15.05C13.23 15.05 13.2 15.01 13.18 14.96C13.14 14.84 13.035 14.68 12.965 14.635C12.93 14.615 12.9 14.575 12.9 14.55C12.9 14.505 12.705 14.225 12.45 13.9C12.395 13.83 12.35 13.75 12.35 13.715C12.35 13.68 12.32 13.635 12.285 13.615C12.25 13.595 12.125 13.425 12 13.235C11.88 13.05 11.765 12.9 11.745 12.9C11.73 12.9 11.685 12.83 11.65 12.75C11.615 12.665 11.56 12.58 11.53 12.56C11.5 12.54 11.43 12.44 11.375 12.335C11.32 12.235 11.26 12.15 11.24 12.15C11.22 12.15 11.165 12.07 11.12 11.975C11.075 11.88 11.02 11.8 11 11.8C10.975 11.8 10.945 11.76 10.93 11.71C10.915 11.665 10.835 11.545 10.75 11.45C10.67 11.355 10.6 11.25 10.6 11.215C10.6 11.18 10.57 11.135 10.535 11.115C10.485 11.08 10.21 10.7 9.88999 10.215C9.84499 10.145 9.78999 10.07 9.76499 10.055C9.74499 10.04 9.67999 9.94 9.62499 9.835C9.56999 9.735 9.50999 9.65 9.48999 9.65C9.46999 9.65 9.41499 9.57 9.36999 9.475C9.32499 9.38 9.26999 9.3 9.24999 9.3C9.22499 9.3 9.19499 9.26 9.17999 9.21C9.16499 9.165 9.08499 9.045 8.99999 8.95C8.91999 8.855 8.84999 8.75 8.84999 8.715C8.84999 8.68 8.81999 8.635 8.78499 8.615C8.73499 8.58 8.45999 8.2 8.13999 7.715C8.09499 7.645 8.03999 7.57 8.01499 7.555C7.99499 7.54 7.92999 7.44 7.87499 7.335C7.81999 7.235 7.75999 7.15 7.73999 7.15C7.71999 7.15 7.66499 7.07 7.61999 6.975C7.57499 6.88 7.51999 6.8 7.49999 6.8C7.47499 6.8 7.44499 6.76 7.42999 6.71C7.41499 6.665 7.33499 6.545 7.24999 6.45C7.16999 6.355 7.09999 6.25 7.09999 6.215C7.09999 6.18 7.06999 6.135 7.03499 6.115C6.98499 6.08 6.70999 5.7 6.38999 5.215C6.34499 5.145 6.28999 5.07 6.26499 5.055C6.24499 5.04 6.17999 4.945 6.12999 4.85C6.07499 4.755 6.01999 4.665 6.00499 4.65C5.98499 4.635 5.92999 4.56 5.87999 4.475C5.82499 4.395 5.76499 4.305 5.73999 4.275C5.57499 4.07 5.36499 3.76 5.33499 3.685C5.31999 3.64 5.27999 3.6 5.24999 3.6C5.22499 3.6 5.19999 3.57 5.19999 3.535C5.19999 3.505 5.11999 3.375 5.02499 3.255C4.92999 3.135 4.84999 3.02 4.84999 3C4.84999 2.98 4.79499 2.9 4.72499 2.82C4.65999 2.74 4.57499 2.64 4.53999 2.595C4.45999 2.5 4.29999 2.22 4.29999 2.18C4.29999 2.165 5.20999 2.15 6.32499 2.15C7.62999 2.15 8.34999 2.17 8.34999 2.2Z" fill="white"/>
</g>
<defs>
<clipPath id="clip0_96_701">
<rect width="32" height="32" fill="white"/>
</clipPath>
</defs>
</svg>
