<svg width="48" height="48" viewBox="0 0 48 48" fill="none" xmlns="http://www.w3.org/2000/svg">
<path d="M46 19.42C46.0989 16.5573 45.4729 13.716 44.18 11.16C43.3028 10.1112 42.0854 9.40339 40.74 9.15997C35.175 8.65502 29.5871 8.44806 24 8.53997C18.4333 8.44388 12.8654 8.64417 7.31999 9.13997C6.22363 9.3394 5.20903 9.85365 4.39999 10.62C2.59999 12.28 2.39999 15.12 2.19999 17.52C1.90982 21.8351 1.90982 26.1648 2.19999 30.48C2.25785 31.8308 2.45898 33.1716 2.79999 34.48C3.04114 35.4901 3.52904 36.4247 4.21999 37.2C5.03453 38.0069 6.07276 38.5504 7.19999 38.76C11.5118 39.2922 15.8564 39.5128 20.2 39.42C27.2 39.52 33.34 39.42 40.6 38.86C41.7549 38.6633 42.8224 38.1191 43.66 37.3C44.2199 36.7398 44.6382 36.0542 44.88 35.3C45.5952 33.1052 45.9466 30.8082 45.92 28.5C46 27.38 46 20.62 46 19.42ZM19.48 29.7V17.32L31.32 23.54C28 25.38 23.62 27.46 19.48 29.7Z" fill="white"/>
</svg>
